<?xml version="1.0" encoding="UTF-8"?> <svg xmlns="http://www.w3.org/2000/svg" width="53" height="21" viewBox="0 0 53 21" fill="none"><mask id="mask0_1002_238" style="mask-type:luminance" maskUnits="userSpaceOnUse" x="0" y="6" width="53" height="9"><path d="M52.997 10.476L52.997 10.4099C52.9609 10.1391 52.0588 10.0007 50.8891 9.95555L50.2396 9.09509C50.3719 9.10713 50.5133 9.08005 50.6155 9.01988L50.6155 8.76715C50.5193 8.70999 50.387 8.68291 50.2637 8.69194L49.9359 8.69194L49.3947 7.97589C49.536 7.98792 49.6834 7.96386 49.7946 7.89767L49.7946 7.63291C49.6924 7.57274 49.5601 7.54566 49.4278 7.55168L49.076 7.55168L48.213 6.40841C48.0566 6.20081 48.0536 6.19179 47.798 6.17073C47.774 6.17073 47.7529 6.16772 47.7289 6.16471C47.6838 6.1617 47.6537 6.15869 47.6296 6.15869L47.6236 6.15869C47.5695 6.15869 47.5845 6.17975 47.6236 6.25497L47.6176 6.24895L48.2551 7.72317L48.0566 7.76228L48.2821 7.78635L48.4325 8.13835L48.231 8.17747L48.4625 8.20755L48.6189 8.56858L48.3543 8.59867L48.646 8.64982L48.9707 9.39294L0.556213 10.458L48.9707 11.499L48.646 12.2421L48.3543 12.2932L48.6129 12.3203L48.4565 12.6844L48.228 12.7144L48.4265 12.7536L48.2761 13.1056L48.0536 13.1296L48.2491 13.1687L47.6236 14.6339C47.5665 14.7422 47.5605 14.7392 47.7289 14.7242C47.7529 14.7242 47.774 14.7212 47.798 14.7182C48.0536 14.6941 48.0566 14.6851 48.213 14.4775L49.076 13.3342L49.4849 13.3342C49.5992 13.3312 49.7104 13.3041 49.7946 13.253L49.7946 12.9882C49.6834 12.925 49.536 12.898 49.3947 12.91L49.9359 12.194L50.2727 12.194C50.2938 12.194 50.3118 12.194 50.3329 12.194C50.4381 12.1909 50.5373 12.1639 50.6185 12.1187L50.6185 11.866C50.5163 11.8058 50.375 11.7788 50.2426 11.7908L50.8921 10.9303C52.0618 10.8852 52.9639 10.7438 53 10.476" fill="white"></path></mask><g mask="url(#mask0_1002_238)"><path d="M52.9971 14.7422L52.9971 6.15259L0.556286 6.15259L0.556285 14.7422L52.9971 14.7422Z" fill="url(#paint0_linear_1002_238)"></path></g><path d="M43.5856 8.9627L43.5856 8.90554C43.6968 8.6468 43.8171 8.41815 43.9434 8.21356C44.0727 8.01198 44.214 7.84049 44.3734 7.69909C44.5327 7.56069 44.7132 7.45238 44.9206 7.37416C45.1251 7.29594 45.3596 7.25983 45.6212 7.25983C45.8017 7.25983 45.9941 7.27488 46.2046 7.30797C46.4121 7.33806 46.5714 7.35611 46.6827 7.35611C46.806 7.35611 46.9052 7.32903 46.9774 7.27788C47.0495 7.22674 47.1037 7.13046 47.1397 6.98906L47.3262 4.85295C47.0225 4.62128 46.6256 4.50696 46.1414 4.50696C45.5461 4.50696 45.0259 4.68447 44.5808 5.04249C44.1358 5.39751 43.7449 5.8849 43.4051 6.49866L43.2488 5.41857C43.2007 5.15983 43.1195 4.97931 43.0082 4.87401C42.897 4.76871 42.6955 4.71756 42.4038 4.71756L40.7109 4.71756L40.7109 9.02588L43.5795 8.9627L43.5856 8.9627Z" fill="#2D2D2D"></path><path d="M40.7168 11.8751L40.7168 15.5185L43.5854 15.5185L43.5854 11.9473L40.7168 11.8751Z" fill="#2D2D2D"></path><path d="M30.6798 6.95897C30.8151 7.06127 30.9835 7.11241 31.1849 7.11241C31.4134 7.11241 31.6149 7.06428 31.7863 6.97101C31.9607 6.87774 32.1441 6.77545 32.3426 6.66714C32.541 6.55883 32.7696 6.45654 33.0342 6.36327C33.2988 6.27 33.6265 6.22187 34.0205 6.22187C34.5527 6.22187 34.9616 6.38132 35.2473 6.69723C35.5299 7.01614 35.6743 7.51256 35.6743 8.18949L35.6743 8.74308C34.4474 8.77016 33.4281 8.8905 32.6132 9.10411C32.4809 9.14021 32.3546 9.17632 32.2283 9.21242L38.4707 9.07402L38.4707 8.18649C38.4707 7.57273 38.3775 7.00711 38.1911 6.48963C38.0046 5.97215 37.734 5.52688 37.3852 5.15381C37.0364 4.78074 36.6094 4.48891 36.1073 4.27831C35.6051 4.0677 35.0338 3.9624 34.3963 3.9624C33.5093 3.9624 32.6854 4.10381 31.9216 4.38662C31.1609 4.66942 30.4633 5.09665 29.8318 5.67129L30.34 6.59192C30.4302 6.73333 30.5414 6.85066 30.6767 6.95296" fill="#2D2D2D"></path><path d="M35.674 11.7095L35.674 12.6783C35.3282 13.0424 34.9794 13.3101 34.6306 13.4816C34.2818 13.6531 33.8669 13.7374 33.3888 13.7374C32.9738 13.7374 32.6491 13.6501 32.4175 13.4756C32.186 13.3011 32.0687 13.0033 32.0687 12.5851C32.0687 12.3745 32.1259 12.1819 32.2401 12.0044C32.2642 11.9984 32.4747 11.7156 32.4987 11.7095L29.57 11.6554C29.3685 12.0525 29.3264 12.3353 29.3264 12.7325C29.3264 13.2139 29.4016 13.6411 29.5549 14.0111C29.7083 14.3812 29.9248 14.6911 30.2044 14.9378C30.4841 15.1845 30.8208 15.374 31.2087 15.4974C31.5966 15.6237 32.0266 15.6869 32.4987 15.6869C32.8806 15.6869 33.2264 15.6538 33.5331 15.5937C33.8428 15.5305 34.1315 15.4372 34.4021 15.3169C34.6727 15.1935 34.9343 15.0431 35.1869 14.8626C35.4395 14.6821 35.7011 14.4715 35.9717 14.2338L36.2002 14.9257C36.2904 15.1694 36.4077 15.3319 36.549 15.4071C36.6904 15.4854 36.8978 15.5215 37.1685 15.5215L38.4795 15.5215L38.4163 11.7968L35.68 11.7126L35.674 11.7095Z" fill="#2D2D2D"></path><path d="M21.9778 6.41434C22.1131 6.52566 22.2875 6.60388 22.504 6.64601L23.337 6.79343L23.337 9.33269L26.1965 9.32367L26.1965 6.79042L28.7645 6.79042L28.7645 4.77766L26.1033 4.77766L26.1033 4.14886C26.1033 3.77279 26.1454 3.45688 26.2266 3.20115C26.3108 2.94542 26.4311 2.74384 26.5905 2.59341C26.7498 2.44298 26.9453 2.33768 27.1768 2.2745C27.4083 2.21132 27.6699 2.18123 27.9616 2.18123C28.1691 2.18123 28.3585 2.14814 28.5269 2.08195C28.6953 2.01576 28.7885 1.87436 28.8036 1.65774L28.8667 0.231656C28.6382 0.168476 28.4096 0.120338 28.1841 0.0902519C27.9586 0.0601659 27.7211 0.0421142 27.4715 0.0421142C26.828 0.0421142 26.2477 0.135381 25.7365 0.324923C25.2253 0.514465 24.7893 0.779223 24.4375 1.12521C24.0827 1.4712 23.8121 1.89241 23.6226 2.39184C23.4332 2.89126 23.337 3.44786 23.337 4.06161L23.337 4.77465L21.7764 4.77465L21.7764 5.92695C21.7764 6.13755 21.8425 6.29701 21.9778 6.40832" fill="#2D2D2D"></path><path d="M23.3338 11.5349L23.3338 15.5604L26.1934 15.5604L26.1934 11.5981L23.3338 11.5349Z" fill="#2D2D2D"></path><path d="M12.7134 7.22346C12.8487 7.32576 13.0171 7.3769 13.2185 7.3769C13.4471 7.3769 13.6485 7.32877 13.8229 7.2355C13.9973 7.14223 14.1808 7.03994 14.3792 6.93163C14.5777 6.82332 14.8062 6.72103 15.0708 6.62776C15.3324 6.53449 15.6632 6.48636 16.0571 6.48636C16.5923 6.48636 16.9982 6.64581 17.2839 6.96172C17.5666 7.28063 17.7109 7.77705 17.7109 8.45399L17.7109 9.01058C16.4841 9.03765 15.4647 9.158 14.6498 9.37161C14.0815 9.51903 14.1808 9.44382 13.7718 9.64539L20.5073 9.45886L20.5073 8.45399C20.5073 7.84023 20.4141 7.27461 20.2277 6.75713C20.0413 6.23965 19.7706 5.79438 19.4218 5.42131C19.073 5.04824 18.646 4.75641 18.1439 4.54581C17.6417 4.3352 17.0704 4.23291 16.4329 4.23291C15.5459 4.23291 14.722 4.37431 13.9582 4.65712C13.1945 4.93993 12.4999 5.36715 11.8684 5.9418L12.3766 6.86243C12.4668 7.00384 12.5781 7.12418 12.7134 7.22346Z" fill="#2D2D2D"></path><path d="M12.1479 11.162C11.8382 11.4177 11.8111 11.4749 11.6608 11.7727C11.4593 12.1699 11.3601 12.57 11.3601 12.9672C11.3601 13.4485 11.4353 13.8757 11.5886 14.2458C11.742 14.6159 11.9585 14.9258 12.2381 15.1725C12.5178 15.4192 12.8545 15.6087 13.2424 15.7321C13.6303 15.8584 14.0603 15.9216 14.5324 15.9216C14.9143 15.9216 15.2571 15.8915 15.5668 15.8283C15.8765 15.7652 16.1652 15.6719 16.4358 15.5515C16.7064 15.4282 16.968 15.2778 17.2206 15.0972C17.4732 14.9167 17.7348 14.7061 18.0054 14.4684L18.2339 15.1604C18.3241 15.4041 18.4414 15.5666 18.5827 15.6418C18.7241 15.72 18.9315 15.7561 19.2022 15.7561L20.5132 15.7561L20.5132 11.4177L12.1539 11.165L12.1479 11.162ZM17.7107 12.913C17.3649 13.277 17.0161 13.5448 16.6673 13.7133C16.3185 13.8848 15.9036 13.969 15.4255 13.969C15.0105 13.969 14.6858 13.8818 14.4542 13.7073C14.2227 13.5328 14.1054 13.2349 14.1054 12.8167C14.1054 12.6061 14.1626 12.4136 14.2768 12.2361C14.3911 12.0586 14.4693 11.9623 14.7429 11.8239C15.0165 11.6855 15.2902 11.6163 15.7532 11.529C16.2163 11.4418 16.9861 11.4418 17.7107 11.4839L17.7107 12.916L17.7107 12.913Z" fill="#2D2D2D"></path><path d="M1.65996 7.39816C1.97869 7.72008 2.34253 7.97882 2.75147 8.17438C3.16041 8.36994 3.57837 8.53843 4.00836 8.67682C4.43836 8.81522 4.85632 8.94459 5.26526 9.05891C5.6742 9.17324 6.03804 9.31164 6.35677 9.4741C6.67551 9.63356 6.81984 9.67568 7.0183 9.91336L10.3169 9.79602C10.2778 9.35977 10.2207 9.27553 10.0733 8.94459C9.87488 8.50232 9.61628 8.12625 9.29454 7.81937C8.9728 7.51249 8.60595 7.25676 8.19701 7.05518C7.78807 6.85361 7.37011 6.6761 6.94012 6.52567C6.51013 6.37524 6.09216 6.23684 5.68322 6.11048C5.27428 5.98412 4.90744 5.84271 4.58569 5.68025C4.26395 5.52079 4.00235 5.32824 3.8069 5.10861C3.60844 4.88898 3.50921 4.61219 3.50921 4.27523C3.50921 3.75173 3.68963 3.32752 4.05046 3.00259C4.41129 2.67766 4.95254 2.51519 5.67119 2.51519C6.08014 2.51519 6.43796 2.56935 6.74166 2.67766C7.04536 2.78597 7.31598 2.9033 7.55353 3.02967C7.78807 3.15603 7.99555 3.27336 8.17295 3.38167C8.35036 3.48998 8.51274 3.54414 8.66609 3.54414C8.81945 3.54414 8.95476 3.50803 9.05699 3.43282C9.15622 3.36061 9.25545 3.24328 9.35468 3.08081L10.1245 1.60359C9.58922 1.10115 8.93671 0.707022 8.16393 0.424213C7.39115 0.141404 6.55223 -1.64651e-07 5.64413 -2.04367e-07C4.83226 -2.39875e-07 4.11361 0.126361 3.48817 0.376076C2.85972 0.628798 2.33351 0.959745 1.90352 1.37192C1.47353 1.7841 1.14878 2.25645 0.926267 2.78597C0.703753 3.31548 0.592497 3.86606 0.592497 4.43168C0.592497 5.1387 0.691727 5.72839 0.890184 6.20375C1.08864 6.67911 1.34423 7.07624 1.66597 7.39816" fill="#2D2D2D"></path><path d="M7.41187 10.9272C7.44194 11.0717 7.42991 11.192 7.42991 11.192C7.42991 11.8569 7.23145 12.3563 6.83153 12.6903C6.43161 13.0242 5.86932 13.1927 5.14164 13.1927C4.64249 13.1927 4.21551 13.1235 3.85768 12.9821C3.49986 12.8437 3.18714 12.6873 2.91651 12.5218C2.64589 12.3533 2.40835 12.1999 2.20087 12.0615C1.99339 11.9231 1.79493 11.8509 1.6085 11.8509C1.47018 11.8509 1.33788 11.887 1.21459 11.9622C1.0883 12.0344 0.989072 12.1277 0.913899 12.239L-0.000204209 13.7252C0.291468 14.0261 0.63125 14.2969 1.01914 14.5436C1.40704 14.7873 1.82199 14.9979 2.26101 15.1724C2.70002 15.3469 3.15707 15.4823 3.63216 15.5816C4.10726 15.6778 4.58235 15.729 5.06045 15.729C5.89939 15.729 6.64811 15.5996 7.31264 15.3409C7.97417 15.0821 8.53044 14.7271 8.98148 14.2788C9.43252 13.8275 9.77832 13.301 10.0159 12.6963C10.2564 12.0916 10.3677 11.7666 10.3677 11.0747L10.3677 11.0596L7.41488 10.9303L7.41187 10.9272Z" fill="#2D2D2D"></path><path d="M2.42066 18.5811L1.49152 18.5811L1.49152 17.8079L4.25488 17.8079L4.25488 18.5811L3.32574 18.5811L3.32574 20.997L2.42066 20.997L2.42066 18.5811Z" fill="#2D2D2D"></path><path d="M10.4522 17.8079L12.0248 17.8079C12.7344 17.8079 13.2396 18.2862 13.2396 18.903C13.2396 19.249 13.1013 19.4716 12.9539 19.613C12.8727 19.6943 12.7765 19.7635 12.6683 19.8146L13.3599 21L12.4067 21L11.8594 19.9981L11.3603 19.9981L11.3603 21L10.4552 21L10.4552 17.8079L10.4522 17.8079ZM11.9767 19.2189C12.1902 19.2189 12.3345 19.0805 12.3345 18.9C12.3345 18.7195 12.1902 18.5811 11.9767 18.5811L11.3573 18.5811L11.3573 19.2189L11.9767 19.2189Z" fill="#2D2D2D"></path><path d="M20.435 17.8079L21.4363 17.8079L22.6992 21L21.722 21L21.4844 20.317L20.3869 20.317L20.1493 21L19.1721 21L20.435 17.8079ZM21.2439 19.607L20.9432 18.6954L20.9251 18.6954L20.6244 19.607L21.2439 19.607Z" fill="#2D2D2D"></path><path d="M28.0127 17.8079L28.99 17.8079L29.6966 20.0402L29.7146 20.0402L30.4183 17.8079L31.3955 17.8079L30.2048 20.997L29.2035 20.997L28.0127 17.8079Z" fill="#2D2D2D"></path><path d="M37.4963 17.8079L40.0461 17.8079L40.0461 18.5811L38.4013 18.5811L38.4013 19.0384L39.6642 19.0384L39.6642 19.7665L38.4013 19.7665L38.4013 20.2238L40.0942 20.2238L40.0942 20.997L37.4963 20.997L37.4963 17.8079Z" fill="#2D2D2D"></path><path d="M46.3848 17.8079L47.2898 17.8079L47.2898 20.1786L48.7422 20.1786L48.7422 20.997L46.3848 20.997L46.3848 17.8079Z" fill="#2D2D2D"></path><defs><linearGradient id="paint0_linear_1002_238" x1="52.4401" y1="6.15259" x2="0.373202" y2="6.15259" gradientUnits="userSpaceOnUse"><stop stop-color="#A96E42"></stop><stop offset="1" stop-color="#F5E9DD"></stop></linearGradient></defs></svg> 